HIERARCHY
ROOT RootJoint
{
    OFFSET   0.000000   0.000000   0.000000
    CHANNELS 6 Xposition Yposition Zposition Xrotation Yrotation Zrotation
    JOINT pelvis_lowerback
    {
        OFFSET   0.000000   0.093605   0.000000
        CHANNELS 3 Xrotation Yrotation Zrotation
        JOINT lowerback_torso
        {
            OFFSET   0.000000   0.100000   0.000000
            CHANNELS 3 Xrotation Yrotation Zrotation
            JOINT torso_head
            {
                OFFSET   0.000000   0.282350   0.000000
                CHANNELS 3 Xrotation Yrotation Zrotation
                End Site
                {
                    OFFSET   0.000000   0.192650   0.000000
                }
            }
            JOINT rTorso_Clavicle
            {
                OFFSET  -0.001000   0.157500   0.000000
                CHANNELS 3 Xrotation Yrotation Zrotation
                JOINT rShoulder
                {
                    OFFSET  -0.117647   0.000000   0.000000
                    CHANNELS 3 Xrotation Yrotation Zrotation
                    JOINT rElbow
                    {
                        OFFSET  -0.245000   0.000000   0.000000
                        CHANNELS 3 Xrotation Yrotation Zrotation
                        JOINT rWrist
                        {
                            OFFSET  -0.240000   0.000000   0.000000
                            CHANNELS 3 Xrotation Yrotation Zrotation
                            End Site
                            {
                                OFFSET  -0.116353  -0.002500   0.000000
                            }
                        }
                    }
                }
            }
            JOINT lTorso_Clavicle
            {
                OFFSET   0.001000   0.157500   0.000000
                CHANNELS 3 Xrotation Yrotation Zrotation
                JOINT lShoulder
                {
                    OFFSET   0.117647   0.000000   0.000000
                    CHANNELS 3 Xrotation Yrotation Zrotation
                    JOINT lElbow
                    {
                        OFFSET   0.245000   0.000000   0.000000
                        CHANNELS 3 Xrotation Yrotation Zrotation
                        JOINT lWrist
                        {
                            OFFSET   0.240000   0.000000   0.000000
                            CHANNELS 3 Xrotation Yrotation Zrotation
                            End Site
                            {
                                OFFSET   0.116353  -0.002500   0.000000
                            }
                        }
                    }
                }
            }
        }
    }
    JOINT rHip
    {
        OFFSET  -0.100000  -0.051395   0.000000
        CHANNELS 3 Xrotation Yrotation Zrotation
        JOINT rKnee
        {
            OFFSET   0.000000  -0.410000   0.000000
            CHANNELS 3 Xrotation Yrotation Zrotation
            JOINT rAnkle
            {
                OFFSET   0.000000  -0.390000   0.000000
                CHANNELS 3 Xrotation Yrotation Zrotation
                JOINT rToeJoint
                {
                    OFFSET   0.000000  -0.050000   0.130000
                    CHANNELS 3 Xrotation Yrotation Zrotation
                    End Site
                    {
                        OFFSET  -0.010000   0.002000   0.060000
                    }
                }
            }
        }
    }
    JOINT lHip
    {
        OFFSET   0.100000  -0.051395   0.000000
        CHANNELS 3 Xrotation Yrotation Zrotation
        JOINT lKnee
        {
            OFFSET   0.000000  -0.410000   0.000000
            CHANNELS 3 Xrotation Yrotation Zrotation
            JOINT lAnkle
            {
                OFFSET   0.000000  -0.390000   0.000000
                CHANNELS 3 Xrotation Yrotation Zrotation
                JOINT lToeJoint
                {
                    OFFSET   0.000000  -0.050000   0.130000
                    CHANNELS 3 Xrotation Yrotation Zrotation
                    End Site
                    {
                        OFFSET   0.010000   0.002000   0.060000
                    }
                }
            }
        }
    }
}
MOTION
Frames: 7
Frame Time:   0.008333
 -2.488035   0.913481   4.463161  17.739546   9.951161   0.711677  16.478926  -8.105509   8.519585   4.493471 -12.117696  12.382163  -5.060660  11.856514  -4.177628  -1.063367   4.784434   0.973119   7.407463   7.907289  32.224278  -0.009894  40.257106  -0.017972   2.628186   2.107936  -5.735318 -10.552261 -33.876717  13.452919 -18.920554 -28.880525   4.715439  -0.000501 -11.792119  -0.001344   5.613700  -3.808953   6.479185 -30.966812   9.531420  -3.959300  16.059774   0.000007  -0.000788  -1.585136  -0.788773   2.389935  -0.827383  -0.000041   0.000083  17.234734  12.424803   5.520819   8.424583   0.000366   0.003396   3.995984   7.259625 -11.020581  -0.309667  -0.000125  -0.000707
 -2.487176   0.913402   4.465075  17.717086   9.606188   0.742633  16.397108  -8.101137   8.592476   4.560454 -12.210468  12.483628  -4.910540  11.975624  -4.240091  -1.006018   4.565755   1.097867   7.409627   7.690042  32.514901  -0.010612  39.495452  -0.018753   2.550206   2.189535  -5.720573 -10.670878 -33.858046  13.309839 -19.011781 -29.206252   4.393017  -0.000032 -12.167021  -0.001788   5.554862  -3.795980   6.323745 -30.918761   9.689971  -3.851371  16.170377   0.000002  -0.000778  -1.761982  -0.636822   2.338065  -0.821244  -0.000030   0.000066  17.166793  12.337993   5.393274   8.297546   0.000325   0.003154   4.225701   7.263394 -10.984565  -0.273398  -0.000129  -0.000690
 -2.486328   0.913349   4.466976  17.682908   9.273113   0.780898  16.310711  -8.103880   8.652397   4.626423 -12.307464  12.580600  -4.769097  12.090776  -4.303891  -0.937418   4.347331   1.231822   7.425313   7.475381  32.801009  -0.011171  38.770294  -0.019018   2.466486   2.183544  -5.673997 -10.770392 -33.851603  13.178959 -19.096766 -29.528908   4.081905   0.000295 -12.532057  -0.002100   5.504027  -3.880084   6.164426 -30.851125   9.843006  -3.756187  16.270605  -0.000001  -0.000754  -1.934290  -0.486899   2.289042  -0.814159  -0.000021   0.000053  17.099701  12.255074   5.272138   8.183958   0.000292   0.002897   4.441545   7.266757 -10.951023  -0.232694  -0.000135  -0.000685
 -2.485482   0.913303   4.468851  17.641099   8.945037   0.821807  16.224262  -8.117081   8.706557   4.689018 -12.409535  12.674664  -4.637923  12.198870  -4.365567  -0.865677   4.134589   1.365788   7.447131   7.270012  33.076159  -0.011422  38.090395  -0.018941   2.383672   2.149491  -5.605785 -10.857822 -33.851220  13.059108 -19.176636 -29.835422   3.787227   0.000474 -12.875949  -0.002297   5.458454  -3.993139   6.002997 -30.772475   9.993424  -3.667278  16.364044  -0.000002  -0.000726  -2.102054  -0.337462   2.244285  -0.806593  -0.000013   0.000042  17.034056  12.178070   5.158017   8.077772   0.000267   0.002655   4.642945   7.270049 -10.919675  -0.195761  -0.000137  -0.000666
 -2.484634   0.913259   4.470691  17.594015   8.619063   0.863486  16.138771  -8.139266   8.757734   4.746769 -12.514356  12.766217  -4.516156  12.299720  -4.424055  -0.794220   3.929790   1.495498   7.471976   7.075068  33.337398  -0.011384  37.454558  -0.018620   2.303437   2.107064  -5.527652 -10.936758 -33.854068  12.949241 -19.252130 -30.124079   3.510120   0.000534 -13.198177  -0.002401   5.415678  -4.112488   5.844495 -30.687370  10.142339  -3.582082  16.452260  -0.000002  -0.000697  -2.265075  -0.187635   2.203938  -0.798743  -0.000007   0.000034  16.969335  12.106393   5.051092   7.977843   0.000249   0.002435   4.830825   7.273253 -10.890378  -0.162370  -0.000136  -0.000638
 -2.483782   0.913212   4.472490  17.542745   8.294655   0.905289  16.054506  -8.168444   8.807078   4.799068 -12.619967  12.855280  -4.402988  12.393663  -4.479066  -0.724688   3.734046   1.618974   7.498225   6.890712  33.583646  -0.011117  36.860455  -0.018114   2.226181   2.062336  -5.446309 -11.009050 -33.859067  12.848844 -19.323581 -30.395330   3.250664   0.000506 -13.499688  -0.002430   5.374951  -4.231708   5.692039 -30.597978  10.290038  -3.499933  16.536129  -0.000001  -0.000668  -2.423274  -0.037365   2.167858  -0.790724  -0.000003   0.000027  16.905276  12.039485   4.951533   7.883708   0.000236   0.002235   5.006105   7.276342 -10.862999  -0.132059  -0.000133  -0.000604
 -2.482928   0.913164   4.474244  17.487828   7.972385   0.947096  15.971436  -8.202883   8.855021   4.845695 -12.724943  12.941761  -4.297726  12.481136  -4.530608  -0.657941   3.547941   1.735439   7.524895   6.716863  33.814828  -0.010683  36.305625  -0.017467   2.151984   2.017693  -5.365184 -11.075803 -33.865730  12.757445 -19.391196 -30.650131   3.008414   0.000420 -13.781724  -0.002400   5.336042  -4.349025   5.547160 -30.505384  10.436424  -3.420998  16.616236   0.000001  -0.000640  -2.576663   0.112991   2.135786  -0.782605   0.000001   0.000022  16.841791  11.976916   4.859465   7.794994   0.000227   0.002053   5.169638   7.279306 -10.837410  -0.104477  -0.000130  -0.000567
